<?xml version="1.0" encoding="UTF-8"?>
<svg viewBox="0 0 1310 303" version="1.1" xmlns="http://www.w3.org/2000/svg" xmlns:xlink="http://www.w3.org/1999/xlink" preserveAspectRatio="none">
    <!-- Generator: Sketch 44.1 (41455) - http://www.bohemiancoding.com/sketch -->
    <title>Combined Shape</title>
    <desc>Created with Sketch.</desc>
    <defs></defs>
    <g id="exploration" fill="none" fill-rule="evenodd">
        <path d="M1134.18775,303 L175.812247,303 C194.370983,288.012802 215.796226,274.243609 239.690197,261.724567 C259.592609,251.296868 276.642662,243.479648 312.825068,227.688276 C313.67412,227.317727 313.67412,227.317727 314.523205,226.947179 C343.086543,214.481812 355.99067,208.687828 371.660318,201.055608 C392.328637,190.988684 410.093046,181.160681 426.406768,170.51807 C492.309952,127.528448 535.045771,65.0860811 534.103785,0.869665279 L530.104215,0.928334721 C531.02318,63.5753596 489.079981,124.859608 424.221299,167.167887 C408.060091,177.711003 390.437383,187.460611 369.908758,197.459494 C354.305684,205.059287 341.435809,210.837892 312.923279,223.281086 C312.074198,223.651633 312.074198,223.651633 311.225062,224.022218 C274.957141,239.850912 257.84711,247.695632 237.833803,258.181433 C212.076584,271.676708 189.133875,286.62605 169.499078,303 L139.390792,303 C161.462337,283.212713 188.527046,265.566827 219.739336,250.071482 C239.701803,240.161778 256.918755,232.686891 292.834666,217.858244 C293.885843,217.424262 293.885843,217.424262 294.937058,216.990292 C349.72243,194.373217 373.933137,183.312654 402.322061,166.331725 C469.509895,126.142777 516.185011,66.0589787 525.051767,1.12881444 L521.683033,0.668785564 C512.970839,64.4671037 466.944916,123.715211 400.576734,163.413878 C372.379154,180.280354 348.270784,191.294164 293.639645,213.847567 C292.588432,214.281536 292.588432,214.281536 291.537144,214.715565 C255.550151,229.573558 238.28256,237.070432 218.227505,247.026098 C185.433687,263.306592 157.14336,281.961969 134.32861,303 L103.799921,303 C128.486929,278.049104 160.98873,256.562828 199.796848,238.414785 C219.85544,229.036005 237.238864,221.951014 273.029925,208.106519 C274.230574,207.642117 274.230574,207.642117 275.431257,207.177745 C327.672788,186.972782 350.846101,177.120018 378.257553,162.128911 C446.629418,124.734685 496.782823,67.3237991 515.974175,1.2893107 L513.285425,0.5078893 C494.31461,65.7835411 444.665126,122.617586 376.914016,159.672306 C349.646031,174.584951 326.548628,184.405441 274.421237,204.566259 C273.220552,205.030632 273.220552,205.030632 272.019783,205.49508 C236.170641,219.362042 218.745347,226.464098 198.610821,235.878383 C158.507041,254.632322 125.045169,276.951091 99.8773345,303 L69.0671012,303 C95.4720249,272.414981 133.18377,247.171411 179.86602,226.752409 C200.069717,217.914834 217.576245,211.286656 253.492223,198.422456 C254.712315,197.985477 254.712315,197.985477 255.932431,197.548536 C305.711949,179.721606 327.828643,171.05326 354.209568,157.915252 C423.684366,123.315155 476.610201,69.0201513 506.895241,1.34793404 L504.887159,0.44926596 C474.812803,67.6507069 422.252874,121.570338 353.228822,155.945953 C326.951293,169.032469 304.888802,177.679571 255.1907,195.477344 C253.97058,195.914287 253.97058,195.914287 252.750388,196.351301 C216.788296,209.232018 199.248411,215.872826 178.984364,224.736799 C131.294175,245.596678 92.8634076,271.490624 66.1684398,303 L35.1311391,303 C62.4816991,266.163848 105.132032,237.325036 159.948379,215.083704 C180.356346,206.801861 197.860211,200.725648 234.304413,188.810776 C235.301224,188.484899 235.301224,188.484899 236.298047,188.159045 C283.768728,172.641124 304.834656,165.119602 330.184478,153.687673 C400.692403,121.891378 455.286569,71.3611716 497.837335,1.31373917 L496.469865,0.48306083 C454.080849,70.2642199 399.727905,120.57116 329.526726,152.229125 C304.246713,163.629572 283.217059,171.138143 235.800903,186.63824 C234.804077,186.964095 234.804077,186.964095 233.807215,187.289989 C197.328475,199.216153 179.79994,205.300929 159.346776,213.601114 C103.808394,236.135406 60.6578425,265.44022 33.1419505,303 L0.572089811,303 C29.2396201,259.350406 76.6027138,227.043815 140.043568,203.406936 C160.744493,195.694158 177.956498,190.30892 215.6546,179.262634 C261.758455,165.753557 281.809591,159.329321 306.178822,149.451782 C377.685358,120.468943 432.222447,74.6585449 488.811091,1.20354257 C431.530533,73.9181076 377.127193,119.616158 305.803182,148.525016 C281.475175,158.385846 261.44527,164.80328 216.100567,178.089914 C177.652575,189.355929 160.425049,194.746023 139.694432,202.469864 C76.0646579,226.177131 28.5263182,258.603855 0.565977831,303 L0,303 L0,0 L1310,0 L1310,303 L1309.43402,303 C1281.47368,258.603855 1233.93534,226.177131 1170.30557,202.469864 C1149.57495,194.746023 1132.34743,189.355929 1093.89943,178.089914 C1048.55473,164.80328 1028.52483,158.385846 1004.19682,148.525016 C932.872807,119.616158 878.469467,73.9181076 821.188909,1.20354257 C877.777553,74.6585449 932.314642,120.468943 1003.82118,149.451782 C1028.19041,159.329321 1048.24154,165.753557 1094.3454,179.262634 C1132.0435,190.30892 1149.25551,195.694158 1169.95643,203.406936 C1233.39729,227.043815 1280.76038,259.350406 1309.42791,303 L1276.85805,303 C1249.34216,265.44022 1206.19161,236.135406 1150.65322,213.601114 C1130.20006,205.300929 1112.67153,199.216153 1076.19278,187.289989 C1075.19592,186.964095 1075.19592,186.964095 1074.1991,186.63824 C1026.78294,171.138143 1005.75329,163.629572 980.473274,152.229125 C910.272095,120.57116 855.919151,70.2642199 813.530135,0.48306083 L812.162665,1.31373917 C854.713431,71.3611716 909.307597,121.891378 979.815522,153.687673 C1005.16534,165.119602 1026.23127,172.641124 1073.70195,188.159045 C1074.69878,188.484899 1074.69878,188.484899 1075.69559,188.810776 C1112.13979,200.725648 1129.64365,206.801861 1150.05162,215.083704 C1204.86797,237.325036 1247.5183,266.163848 1274.86886,303 L1243.83156,303 C1217.13659,271.490624 1178.70583,245.596678 1131.01564,224.736799 C1110.75159,215.872826 1093.2117,209.232018 1057.24961,196.351301 C1056.02942,195.914287 1056.02942,195.914287 1054.8093,195.477344 C1005.1112,177.679571 983.048707,169.032469 956.771178,155.945953 C887.747126,121.570338 835.187197,67.6507069 805.112841,0.44926596 L803.104759,1.34793404 C833.389799,69.0201513 886.315634,123.315155 955.790432,157.915252 C982.171357,171.05326 1004.28805,179.721606 1054.06757,197.548536 C1055.28768,197.985477 1055.28768,197.985477 1056.50778,198.422456 C1092.42376,211.286656 1109.93028,217.914834 1130.13398,226.752409 C1176.81623,247.171411 1214.52798,272.414981 1240.9329,303 L1210.12267,303 C1184.95483,276.951091 1151.49296,254.632322 1111.38918,235.878383 C1091.25465,226.464098 1073.82936,219.362042 1037.98022,205.49508 C1036.77945,205.030632 1036.77945,205.030632 1035.57876,204.566259 C983.451372,184.405441 960.353969,174.584951 933.085984,159.672306 C865.334874,122.617586 815.68539,65.7835411 796.714575,0.5078893 L794.025825,1.2893107 C813.217177,67.3237991 863.370582,124.734685 931.742447,162.128911 C959.153899,177.120018 982.327212,186.972782 1034.56874,207.177745 C1035.76943,207.642117 1035.76943,207.642117 1036.97008,208.106519 C1072.76114,221.951014 1090.14456,229.036005 1110.20315,238.414785 C1149.01127,256.562828 1181.51307,278.049104 1206.20008,303 L1175.67139,303 C1152.85664,281.961969 1124.56631,263.306592 1091.7725,247.026098 C1071.71744,237.070432 1054.44985,229.573558 1018.46286,214.715565 C1017.41157,214.281536 1017.41157,214.281536 1016.36035,213.847567 C961.729216,191.294164 937.620846,180.280354 909.423266,163.413878 C843.055084,123.715211 797.029161,64.4671037 788.316967,0.668785564 L784.948233,1.12881444 C793.814989,66.0589787 840.490105,126.142777 907.677939,166.331725 C936.066863,183.312654 960.27757,194.373217 1015.06294,216.990292 C1016.11416,217.424262 1016.11416,217.424262 1017.16533,217.858244 C1053.08125,232.686891 1070.2982,240.161778 1090.26066,250.071482 C1121.47295,265.566827 1148.53766,283.212713 1170.60921,303 L1140.50092,303 C1120.86612,286.62605 1097.92342,271.676708 1072.1662,258.181433 C1052.15289,247.695632 1035.04286,239.850912 998.774938,224.022218 C997.925802,223.651633 997.925802,223.651633 997.076721,223.281086 C968.564191,210.837892 955.694316,205.059287 940.091242,197.459494 C919.562617,187.460611 901.939909,177.711003 885.778701,167.167887 C820.920019,124.859608 778.97682,63.5753596 779.895785,0.928334721 L775.896215,0.869665279 C774.954229,65.0860811 817.690048,127.528448 883.593232,170.51807 C899.906954,181.160681 917.671363,190.988684 938.339682,201.055608 C954.00933,208.687828 966.913457,214.481812 995.476795,226.947179 C996.32588,227.317727 996.32588,227.317727 997.174932,227.688276 C1033.35734,243.479648 1050.40739,251.296868 1070.3098,261.724567 C1094.20377,274.243609 1115.62902,288.012802 1134.18775,303 Z" id="Combined-Shape" fill="#16131F"></path>
    </g>
</svg>
